<svg width="17" height="17" viewBox="0 0 17 17" fill="none" xmlns="http://www.w3.org/2000/svg">
<path d="M5.48761 6.84613C5.66437 6.84613 5.83389 6.91634 5.95887 7.04133C6.08386 7.16631 6.15408 7.33583 6.15408 7.51259C6.15408 7.68935 6.22429 7.85887 6.34928 7.98386C6.47426 8.10884 6.64378 8.17906 6.82054 8.17906C6.99729 8.17906 7.16681 8.10884 7.2918 7.98386C7.41678 7.85887 7.487 7.68935 7.487 7.51259C7.47576 6.98964 7.26013 6.49188 6.88631 6.12601C6.51249 5.76013 6.01023 5.55524 5.48715 5.55524C4.96408 5.55524 4.46181 5.76013 4.08799 6.12601C3.71417 6.49188 3.49854 6.98964 3.4873 7.51259C3.4873 7.68935 3.55752 7.85887 3.68251 7.98386C3.80749 8.10884 3.97701 8.17906 4.15377 8.17906C4.33052 8.17906 4.50004 8.10884 4.62503 7.98386C4.75001 7.85887 4.82023 7.68935 4.82023 7.51259C4.82023 7.42499 4.8375 7.33825 4.87105 7.25733C4.9046 7.17641 4.95377 7.1029 5.01576 7.041C5.07774 6.9791 5.15132 6.93003 5.23229 6.89659C5.31325 6.86315 5.40001 6.846 5.48761 6.84613Z" fill="#FBB03B"/>
<path d="M10.8214 5.51355C10.2908 5.51355 9.78206 5.7243 9.40692 6.09944C9.03179 6.47458 8.82104 6.98337 8.82104 7.5139C8.82104 7.69066 8.89126 7.86018 9.01625 7.98517C9.14123 8.11016 9.31075 8.18038 9.48751 8.18038C9.66427 8.18038 9.83378 8.11016 9.95877 7.98517C10.0838 7.86018 10.154 7.69066 10.154 7.5139C10.154 7.33714 10.2242 7.16762 10.3492 7.04263C10.4742 6.91764 10.6437 6.84742 10.8204 6.84742C10.9972 6.84742 11.1667 6.91764 11.2917 7.04263C11.4167 7.16762 11.4869 7.33714 11.4869 7.5139C11.4869 7.69066 11.5571 7.86018 11.6821 7.98517C11.8071 8.11016 11.9766 8.18038 12.1534 8.18038C12.3301 8.18038 12.4996 8.11016 12.6246 7.98517C12.7496 7.86018 12.8198 7.69066 12.8198 7.5139C12.8198 6.98369 12.6093 6.47518 12.2346 6.10009C11.8599 5.72501 11.3516 5.51404 10.8214 5.51355Z" fill="#FBB03B"/>
<path d="M8.15433 0.846252C6.57203 0.846252 5.02525 1.31546 3.70962 2.19455C2.39398 3.07364 1.36856 4.32312 0.763041 5.78499C0.157519 7.24686 -0.000913009 8.85546 0.307779 10.4074C0.616472 11.9593 1.37842 13.3848 2.49728 14.5037C3.61614 15.6225 5.04165 16.3845 6.59355 16.6932C8.14546 17.0019 9.75404 16.8434 11.2159 16.2379C12.6778 15.6324 13.9272 14.607 14.8063 13.2913C15.6854 11.9757 16.1546 10.4289 16.1546 8.84658C16.1546 7.79596 15.9477 6.75563 15.5456 5.78499C15.1436 4.81434 14.5543 3.93239 13.8114 3.18949C13.0685 2.4466 12.1865 1.8573 11.2159 1.45524C10.2453 1.05319 9.20494 0.846252 8.15433 0.846252ZM8.15433 15.5131C6.83583 15.5131 5.54695 15.1221 4.45066 14.3896C3.35437 13.657 2.49992 12.6159 1.99535 11.3977C1.49078 10.1796 1.35876 8.83919 1.61599 7.54602C1.87322 6.25284 2.50813 5.06499 3.44045 4.13267C4.37277 3.20034 5.56061 2.56542 6.85377 2.3082C8.14693 2.05097 9.48733 2.18299 10.7055 2.68756C11.9236 3.19213 12.9648 4.04659 13.6973 5.14288C14.4298 6.23918 14.8208 7.52808 14.8208 8.84658C14.8208 9.72204 14.6483 10.5889 14.3133 11.3977C13.9783 12.2065 13.4872 12.9415 12.8682 13.5605C12.2492 14.1795 11.5143 14.6706 10.7055 15.0056C9.89666 15.3406 9.02978 15.5131 8.15433 15.5131Z" fill="#fbb03b"/>
<path d="M10.3483 10.3733L9.95878 10.7647C9.47216 11.2283 8.82582 11.4869 8.15372 11.4869C7.48162 11.4869 6.83529 11.2283 6.34867 10.7647L5.95913 10.3733C5.83278 10.2544 5.66511 10.1894 5.49166 10.1921C5.31821 10.1947 5.15261 10.2648 5.02994 10.3875C4.90728 10.5101 4.8372 10.6757 4.83455 10.8492C4.8319 11.0226 4.8969 11.1903 5.01576 11.3167L5.40714 11.7062C5.76788 12.0679 6.19647 12.355 6.66833 12.5508C7.14019 12.7467 7.64606 12.8475 8.15695 12.8475C8.66784 12.8475 9.17372 12.7467 9.64558 12.5508C10.1174 12.355 10.546 12.0679 10.9068 11.7062L11.2981 11.3167C11.3632 11.2554 11.4154 11.1818 11.4514 11.1C11.4875 11.0183 11.5068 10.9301 11.5082 10.8408C11.5095 10.7514 11.4929 10.6627 11.4594 10.5799C11.4258 10.4971 11.376 10.4219 11.3128 10.3587C11.2496 10.2955 11.1744 10.2456 11.0915 10.2121C11.0087 10.1785 10.92 10.1619 10.8307 10.1633C10.7413 10.1646 10.6532 10.1839 10.5714 10.22C10.4897 10.2561 10.416 10.3082 10.3548 10.3733H10.3483Z" fill="#FBB03B"/>
</svg>
